<svg width="1440" height="997" viewBox="0 0 1440 997" fill="none" xmlns="http://www.w3.org/2000/svg">
<mask id="path-1-inside-1_162_399" fill="white">
<path fill-rule="evenodd" clip-rule="evenodd" d="M646.531 0H-88V997H1479V0H1229.14L1011.46 200.029C970.799 237.399 904.867 237.399 864.202 200.029L646.531 0Z"/>
</mask>
<path fill-rule="evenodd" clip-rule="evenodd" d="M646.531 0H-88V997H1479V0H1229.14L1011.46 200.029C970.799 237.399 904.867 237.399 864.202 200.029L646.531 0Z" fill="#222831"/>
<path d="M-88 0V-3C-89.6569 -3 -91 -1.65685 -91 0H-88ZM646.531 0L648.561 -2.20894C648.008 -2.71768 647.283 -3 646.531 -3V0ZM-88 997H-91C-91 998.657 -89.6569 1000 -88 1000V997ZM1479 997V1000C1480.66 1000 1482 998.657 1482 997H1479ZM1479 0H1482C1482 -1.65685 1480.66 -3 1479 -3V0ZM1229.14 0V-3C1228.38 -3 1227.66 -2.71768 1227.11 -2.20894L1229.14 0ZM1011.46 200.029L1009.43 197.82L1011.46 200.029ZM864.202 200.029L866.232 197.82L864.202 200.029ZM-88 3H646.531V-3H-88V3ZM-85 997V0H-91V997H-85ZM1479 994H-88V1000H1479V994ZM1476 0V997H1482V0H1476ZM1229.14 3H1479V-3H1229.14V3ZM1227.11 -2.20894L1009.43 197.82L1013.49 202.238L1231.17 2.20894L1227.11 -2.20894ZM1009.43 197.82C969.917 234.135 905.75 234.135 866.232 197.82L862.172 202.238C903.985 240.663 971.682 240.663 1013.49 202.238L1009.43 197.82ZM866.232 197.82L648.561 -2.20894L644.501 2.20894L862.172 202.238L866.232 197.82Z" fill="#00ADB5" mask="url(#path-1-inside-1_162_399)"/>
</svg>
